<svg width="36" height="33" viewBox="0 0 36 33" fill="none" xmlns="http://www.w3.org/2000/svg">
  <path d="M15.8312 2.69365C16.2125 1.95614 15.925 1.04989 15.1937 0.668638C14.4625 0.287387 13.55 0.574888 13.1687 1.30614L7.35 12.4999H2C0.89375 12.4999 0 13.3937 0 14.4999C0 15.6062 0.89375 16.4999 2 16.4999L5.24375 29.4687C5.6875 31.25 7.2875 32.5 9.125 32.5H26.875C28.7125 32.5 30.3125 31.25 30.7562 29.4687L34 16.4999C35.1063 16.4999 36 15.6062 36 14.4999C36 13.3937 35.1063 12.4999 34 12.4999H28.65L22.8312 1.30614C22.45 0.574888 21.5437 0.287387 20.8062 0.668638C20.0687 1.04989 19.7875 1.95614 20.1687 2.69365L25.2687 12.4999H10.7312L15.8312 2.69365ZM12 19.5V25.5C12 26.05 11.55 26.5 11 26.5C10.45 26.5 10 26.05 10 25.5V19.5C10 18.95 10.45 18.5 11 18.5C11.55 18.5 12 18.95 12 19.5ZM18 18.5C18.55 18.5 19 18.95 19 19.5V25.5C19 26.05 18.55 26.5 18 26.5C17.45 26.5 17 26.05 17 25.5V19.5C17 18.95 17.45 18.5 18 18.5ZM26 19.5V25.5C26 26.05 25.55 26.5 25 26.5C24.45 26.5 24 26.05 24 25.5V19.5C24 18.95 24.45 18.5 25 18.5C25.55 18.5 26 18.95 26 19.5Z" fill="#5DFF94" />
</svg>