<svg width="58" height="57" viewBox="0 0 58 57" fill="none" xmlns="http://www.w3.org/2000/svg">
<path d="M7.625 14.25H52.75L45.625 38H14.75L7.625 14.25ZM7.625 14.25L5.84375 8.3125M24.231 26.125H28.981M28.981 26.125H33.731M28.981 26.125V21.375M28.981 26.125V30.875M26.625 46.3125C26.625 47.2573 26.2497 48.1635 25.5816 48.8316C24.9135 49.4997 24.0073 49.875 23.0625 49.875C22.1177 49.875 21.2115 49.4997 20.5434 48.8316C19.8753 48.1635 19.5 47.2573 19.5 46.3125M40.875 46.3125C40.875 47.2573 40.4997 48.1635 39.8316 48.8316C39.1635 49.4997 38.2573 49.875 37.3125 49.875C36.3677 49.875 35.4615 49.4997 34.7934 48.8316C34.1253 48.1635 33.75 47.2573 33.75 46.3125" stroke="#58F08C" stroke-width="1.5" stroke-linecap="round" stroke-linejoin="round"/>
</svg>
