<svg width="43" height="43" viewBox="0 0 43 43" fill="none" xmlns="http://www.w3.org/2000/svg">
  <path d="M40.1333 37.5H2.86667C2.10638 37.5 1.37723 37.1629 0.839627 36.5627C0.302023 35.9626 0 35.1487 0 34.3L0 8.7C0 7.85131 0.302023 7.03737 0.839627 6.43726C1.37723 5.83714 2.10638 5.5 2.86667 5.5H40.1333C40.8936 5.5 41.6228 5.83714 42.1604 6.43726C42.698 7.03737 43 7.85131 43 8.7V34.3C43 35.1487 42.698 35.9626 42.1604 36.5627C41.6228 37.1629 40.8936 37.5 40.1333 37.5ZM33.1972 28.02V29.5C33.3871 29.5293 33.6057 29.5467 33.8279 29.5467H33.847C35.512 29.5467 36.3016 28.824 36.9824 26.684L39.9852 17.284H38.2485L36.2347 24.5453H36.1988L34.185 17.284H32.3981L35.2946 26.2347L35.1394 26.7787C35.0863 27.1553 34.9084 27.496 34.641 27.7331C34.3735 27.9701 34.0359 28.0864 33.6953 28.0587H33.7001C33.5326 28.0509 33.3653 28.038 33.1984 28.02H33.1972ZM6.82386 16.2387H6.79281C6.28993 16.254 5.79919 16.4144 5.36839 16.7044C4.9376 16.9944 4.58144 17.404 4.33464 17.8933L4.32747 17.9093C3.31936 19.8453 3.96078 22.808 5.07639 24.612C5.59956 25.4653 6.17289 26.3 6.92897 26.3H6.96958C7.28611 26.2773 7.57875 26.1853 7.84272 26.0373L7.82958 26.044C8.1485 25.8653 8.52356 25.76 8.92011 25.756C9.30353 25.7587 9.66664 25.8627 9.98555 26.044L9.97242 26.0373C10.2292 26.1867 10.5314 26.2773 10.8527 26.2853H10.8874C11.7294 26.268 12.2574 25.4053 12.7244 24.6453C13.0577 24.1067 13.3336 23.4867 13.5271 22.824L13.5402 22.7733V22.76L13.5187 22.7493C13.0525 22.5159 12.6562 22.1378 12.3771 21.6601C12.098 21.1823 11.9478 20.625 11.9444 20.0547V20.0533C11.9486 19.5496 12.0662 19.0552 12.2864 18.6155C12.5066 18.1758 12.8223 17.8051 13.2046 17.5373L13.2153 17.5307L13.2368 17.5147C12.9916 17.1174 12.6658 16.7903 12.286 16.56C11.9062 16.3297 11.4831 16.2027 11.051 16.1893H10.9208C10.4085 16.2183 9.90602 16.3573 9.44089 16.5987L9.46597 16.5867C9.24663 16.7048 9.01137 16.7818 8.76961 16.8147L8.75886 16.816C8.49882 16.7854 8.24568 16.7037 8.01114 16.5747L8.02428 16.5813C7.65069 16.3825 7.24647 16.2653 6.83342 16.236H6.82386V16.2387ZM28.4588 18.66C29.5099 18.66 30.0904 19.2093 30.0904 20.2053V20.884L27.9572 21.0253C25.9565 21.16 24.8994 22.0653 24.8994 23.6427C24.9029 24.0222 24.9781 24.3966 25.1202 24.7414C25.2622 25.0862 25.4679 25.3936 25.7237 25.6435C25.9796 25.8935 26.2798 26.0804 26.6048 26.1919C26.9297 26.3034 27.2721 26.337 27.6096 26.2907L27.5976 26.292L27.6753 26.2933C28.7132 26.2933 29.621 25.6693 30.1131 24.7373L30.1203 24.7227H30.1561V26.192H31.7388V20.0773C31.7388 18.304 30.4715 17.16 28.5102 17.16C26.7018 17.16 25.3569 18.3173 25.3031 19.9107H26.8439C26.9341 19.5188 27.1479 19.1763 27.4461 18.9463C27.7444 18.7163 28.1069 18.6142 28.4672 18.6587L28.46 18.6573L28.4588 18.66ZM16.7222 13.9053V26.1933H18.4315V21.9907H20.7929C21.2795 22.0195 21.7661 21.9346 22.2216 21.7414C22.677 21.5482 23.0913 21.2508 23.4379 20.8685C23.7845 20.4862 24.0556 20.0272 24.2341 19.5211C24.4125 19.015 24.4943 18.4728 24.4742 17.9293V17.9373C24.4954 17.3997 24.4158 16.8631 24.2406 16.3618C24.0653 15.8604 23.7983 15.4055 23.4565 15.026C23.1147 14.6464 22.7057 14.3507 22.2557 14.1578C21.8057 13.9648 21.3245 13.8788 20.8431 13.9053H20.8514H16.7222ZM11.0522 12.9667C10.3693 13.0389 9.73761 13.4018 9.288 13.98L9.28561 13.984C9.0619 14.264 8.89056 14.591 8.78164 14.9459C8.67272 15.3008 8.62843 15.6764 8.65136 16.0507V16.0427C8.69197 16.0427 8.73497 16.048 8.78275 16.048C9.10102 16.0287 9.41208 15.9348 9.69567 15.7724C9.97927 15.61 10.229 15.3827 10.4287 15.1053L10.4323 15.1C10.8833 14.504 11.1064 13.734 11.0534 12.956V12.9653L11.0522 12.9667ZM28.0563 24.8347C27.1509 24.8347 26.5644 24.348 26.5644 23.596C26.5644 22.82 27.1258 22.3733 28.1889 22.3027L30.0881 22.1693V22.864C30.0775 23.1458 30.0154 23.4222 29.9055 23.6762C29.7957 23.9302 29.6404 24.1564 29.4493 24.3409C29.2582 24.5253 29.0352 24.6642 28.7942 24.7489C28.5532 24.8336 28.2993 24.8623 28.0479 24.8333L28.0563 24.8347ZM20.3904 20.3947H18.4267V15.5133H20.3975C20.7011 15.4669 21.0101 15.4968 21.3019 15.6008C21.5938 15.7048 21.8612 15.8802 22.0845 16.1143C22.3079 16.3485 22.4815 16.6353 22.5928 16.9539C22.7042 17.2726 22.7503 17.6149 22.7279 17.956V17.948C22.7497 18.2909 22.7024 18.6348 22.5897 18.9547C22.4769 19.2746 22.3015 19.5622 22.0762 19.7965C21.8509 20.0309 21.5815 20.206 21.2877 20.309C20.994 20.412 20.6833 20.4404 20.3784 20.392L20.3904 20.3947Z" fill="#5DFF94" />
</svg>