<svg width="43" height="43" viewBox="0 0 43 43" fill="none" xmlns="http://www.w3.org/2000/svg">
  <path d="M9.2 34.5C8.32 34.5 7.56693 34.1943 6.9408 33.5828C6.31467 32.9714 6.00107 32.2354 6 31.375V12.625C6 11.7656 6.3136 11.0302 6.9408 10.4187C7.568 9.80729 8.32107 9.50104 9.2 9.5H34.8C35.68 9.5 36.4336 9.80625 37.0608 10.4187C37.688 11.0312 38.0011 11.7667 38 12.625V31.375C38 32.2344 37.6869 32.9703 37.0608 33.5828C36.4347 34.1953 35.6811 34.501 34.8 34.5H9.2ZM23.4701 22.0995C22.5572 22.6127 21.4428 22.6127 20.5299 22.0995L8.82353 15.5185V29.7222C8.82353 30.8268 9.71896 31.7222 10.8235 31.7222H33.1765C34.281 31.7222 35.1765 30.8268 35.1765 29.7222V15.5185L23.4701 22.0995ZM20.4205 19.4594C21.3882 20.0587 22.6117 20.0587 23.5795 19.4594L35.1765 12.2778H8.82353L20.4205 19.4594Z" fill="#5DFF94" />
</svg>