<svg width="43" height="43" viewBox="0 0 43 43" fill="none" xmlns="http://www.w3.org/2000/svg">
  <path d="M16.41 7.5H28.59C33.23 7.5 37 11.27 37 15.91V28.09C37 30.3205 36.114 32.4596 34.5368 34.0368C32.9596 35.614 30.8205 36.5 28.59 36.5H16.41C11.77 36.5 8 32.73 8 28.09V15.91C8 13.6795 8.88605 11.5404 10.4632 9.96323C12.0404 8.38605 14.1795 7.5 16.41 7.5ZM16.12 10.4C14.7356 10.4 13.4078 10.95 12.4289 11.9289C11.45 12.9078 10.9 14.2356 10.9 15.62V28.38C10.9 31.2655 13.2345 33.6 16.12 33.6H28.88C30.2644 33.6 31.5922 33.05 32.5711 32.0711C33.55 31.0922 34.1 29.7644 34.1 28.38V15.62C34.1 12.7345 31.7655 10.4 28.88 10.4H16.12ZM30.1125 12.575C30.5932 12.575 31.0542 12.766 31.3941 13.1059C31.734 13.4458 31.925 13.9068 31.925 14.3875C31.925 14.8682 31.734 15.3292 31.3941 15.6691C31.0542 16.009 30.5932 16.2 30.1125 16.2C29.6318 16.2 29.1708 16.009 28.8309 15.6691C28.491 15.3292 28.3 14.8682 28.3 14.3875C28.3 13.9068 28.491 13.4458 28.8309 13.1059C29.1708 12.766 29.6318 12.575 30.1125 12.575ZM22.5 14.75C24.4228 14.75 26.2669 15.5138 27.6265 16.8735C28.9862 18.2331 29.75 20.0772 29.75 22C29.75 23.9228 28.9862 25.7669 27.6265 27.1265C26.2669 28.4862 24.4228 29.25 22.5 29.25C20.5772 29.25 18.7331 28.4862 17.3735 27.1265C16.0138 25.7669 15.25 23.9228 15.25 22C15.25 20.0772 16.0138 18.2331 17.3735 16.8735C18.7331 15.5138 20.5772 14.75 22.5 14.75ZM22.5 17.65C21.3463 17.65 20.2399 18.1083 19.4241 18.9241C18.6083 19.7399 18.15 20.8463 18.15 22C18.15 23.1537 18.6083 24.2601 19.4241 25.0759C20.2399 25.8917 21.3463 26.35 22.5 26.35C23.6537 26.35 24.7601 25.8917 25.5759 25.0759C26.3917 24.2601 26.85 23.1537 26.85 22C26.85 20.8463 26.3917 19.7399 25.5759 18.9241C24.7601 18.1083 23.6537 17.65 22.5 17.65Z" fill="#5DFF94" />
</svg>