<svg width="43" height="43" viewBox="0 0 43 43" fill="none" xmlns="http://www.w3.org/2000/svg">
  <path d="M36.0503 32.4487C36.0503 32.9346 35.7077 33.2843 35.2146 33.2843C34.7066 33.2843 34.3788 32.9128 34.3788 32.4487C34.3788 31.9845 34.7066 31.613 35.2146 31.613C35.7077 31.613 36.0503 31.9845 36.0503 32.4487ZM12.8485 31.613C12.3178 31.613 12.0128 31.9845 12.0128 32.4487C12.0128 32.9128 12.3191 33.2843 12.8485 33.2843C13.3336 33.2843 13.6615 32.9346 13.6615 32.4487C13.6534 31.9845 13.3336 31.613 12.8485 31.613ZM21.6203 31.5924C21.2171 31.5924 20.9699 31.8418 20.9108 32.2134H22.3365C22.2693 31.8058 22.0086 31.5924 21.6203 31.5924ZM29.6677 31.613C29.1598 31.613 28.8548 31.9845 28.8548 32.4487C28.8548 32.9128 29.1611 33.2843 29.6677 33.2843C30.1756 33.2843 30.5035 32.9346 30.5035 32.4487C30.5035 31.9845 30.1743 31.613 29.6677 31.613ZM37.5728 33.4772C37.5728 33.499 37.5956 33.5132 37.5956 33.5556C37.5956 33.5775 37.5728 33.5916 37.5728 33.634C37.5499 33.6559 37.5499 33.67 37.5351 33.6906C37.5123 33.7125 37.4975 33.7266 37.4532 33.7266C37.4303 33.7485 37.4156 33.7485 37.3712 33.7485C37.3484 33.7485 37.3336 33.7485 37.2892 33.7266C37.2664 33.7266 37.2516 33.7047 37.2301 33.6906C37.2073 33.6687 37.1925 33.6546 37.1925 33.634C37.1697 33.598 37.1697 33.5775 37.1697 33.5556C37.1697 33.5196 37.1697 33.499 37.1925 33.4772C37.1925 33.4412 37.2153 33.4206 37.2301 33.3988C37.253 33.3769 37.2677 33.3769 37.2892 33.3628C37.3269 33.3409 37.3484 33.3409 37.3712 33.3409C37.4088 33.3409 37.4303 33.3409 37.4532 33.3628C37.4908 33.3833 37.5123 33.3833 37.5351 33.3988C37.558 33.4142 37.5499 33.4412 37.5728 33.4772ZM37.4088 33.5775C37.4465 33.5775 37.4465 33.5556 37.468 33.5556C37.4908 33.5338 37.4908 33.5196 37.4908 33.499C37.4908 33.4785 37.4908 33.463 37.468 33.4425C37.4465 33.4425 37.4303 33.4206 37.386 33.4206H37.2664V33.67H37.3255V33.5697H37.3484L37.4303 33.67H37.4895L37.4088 33.5775ZM43 8.92885V34.0712C42.9996 34.9804 42.622 35.8524 41.95 36.4953C41.278 37.1383 40.3667 37.4997 39.4163 37.5H3.58367C2.63333 37.4997 1.72202 37.1383 1.05003 36.4953C0.378035 35.8524 0.000356132 34.9804 0 34.0712V8.92885C0.000356132 8.01956 0.378035 7.14762 1.05003 6.50466C1.72202 5.8617 2.63333 5.50034 3.58367 5.5H39.4163C40.3667 5.50034 41.278 5.8617 41.95 6.50466C42.622 7.14762 42.9996 8.01956 43 8.92885ZM4.77957 18.8991C4.77957 24.3632 9.41536 28.791 15.1181 28.791C17.149 28.7854 19.1339 28.2121 20.8288 27.1415C15.3868 22.9065 15.4244 14.9136 20.8288 10.6773C19.1356 9.60334 17.1496 9.0297 15.1181 9.02784C9.41536 9.02141 4.77957 13.4556 4.77957 18.8991ZM21.5007 26.6709C26.764 22.7419 26.7411 15.0859 21.5007 11.1363C16.2602 15.0859 16.2374 22.7497 21.5007 26.6709ZM10.8773 32.1208C10.8773 31.4998 10.4514 31.0923 9.77951 31.0704C9.43552 31.0704 9.07003 31.1707 8.82413 31.5346C8.64542 31.2414 8.33905 31.0704 7.9131 31.0704C7.75832 31.0682 7.6053 31.1021 7.46736 31.1693C7.32943 31.2366 7.21075 31.335 7.12165 31.4561V31.1424H6.51027V33.7639H7.12165C7.12165 32.4139 6.93488 31.6066 7.79351 31.6066C8.55539 31.6066 8.40624 32.3355 8.40624 33.7639H8.99613C8.99613 32.4564 8.80935 31.6066 9.66798 31.6066C10.4299 31.6066 10.2794 32.3214 10.2794 33.7639H10.8921V32.1208H10.8773ZM14.2299 31.1424H13.64V31.4561C13.5356 31.3315 13.4023 31.2318 13.2507 31.1649C13.0992 31.0979 12.9334 31.0656 12.7666 31.0704C11.998 31.0704 11.4081 31.6567 11.4081 32.4487C11.4081 33.2483 11.998 33.8269 12.7666 33.8269C13.1549 33.8269 13.4384 33.6906 13.64 33.4412V33.7703H14.2299V31.1424ZM17.2532 32.9706C17.2532 31.8997 15.544 32.3844 15.544 31.8843C15.544 31.4767 16.4322 31.5423 16.9253 31.8058L17.1712 31.3417C16.4698 30.9059 14.9165 30.9136 14.9165 31.928C14.9165 32.9488 16.6257 32.5207 16.6257 32.9989C16.6257 33.4489 15.6179 33.4129 15.0804 33.0555L14.8198 33.5055C15.6555 34.048 17.2532 33.9336 17.2532 32.9693V32.9706ZM19.8963 33.634L19.7324 33.1481C19.4488 33.2972 18.8213 33.4618 18.8213 32.8549V31.6695H19.7995V31.1411H18.8213V30.3415H18.2086V31.1411H17.6415V31.6631H18.2086V32.8562C18.2086 34.1136 19.4999 33.8847 19.8963 33.634ZM20.8879 32.6775H22.9411C22.9411 31.5204 22.3889 31.0627 21.6418 31.0627C20.8503 31.0627 20.2833 31.6271 20.2833 32.4409C20.2833 33.9053 21.971 34.1483 22.8068 33.4553L22.5232 33.0272C21.9414 33.4849 21.0599 33.4412 20.8879 32.6775ZM25.3007 31.1424C24.958 30.9997 24.4353 31.0139 24.1666 31.4561V31.1424H23.5539V33.7639H24.1666V32.2854C24.1666 31.4561 24.8761 31.5641 25.122 31.685L25.3007 31.1424ZM26.0921 32.4487C26.0921 31.6335 26.9588 31.37 27.6374 31.8483L27.9209 31.3841C27.0542 30.7349 25.4794 31.091 25.4794 32.4551C25.4794 33.8693 27.151 34.1547 27.9209 33.526L27.6374 33.0619C26.9508 33.526 26.0921 33.2483 26.0921 32.4474V32.4487ZM31.0706 31.1424H30.4578V31.4561C29.8384 30.6706 28.2259 31.1141 28.2259 32.4487C28.2259 33.8205 29.8975 34.2126 30.4578 33.4412V33.7703H31.0706V31.1424ZM33.586 31.1424C33.4073 31.0563 32.765 30.9354 32.4519 31.4561V31.1424H31.862V33.7639H32.4519V32.2854C32.4519 31.4998 33.1237 31.55 33.4073 31.685L33.586 31.1424ZM36.5945 30.0779H36.0047V31.4561C35.3919 30.6783 33.7728 31.0923 33.7728 32.4487C33.7728 33.8346 35.4524 34.2049 36.0047 33.4412V33.7703H36.5945V30.0779ZM37.1629 24.7141V25.0433H37.2221V24.7141H37.3631V24.6576H37.0192V24.7141H37.1629ZM37.6547 33.5556C37.6547 33.5196 37.6547 33.4772 37.6332 33.4412C37.6104 33.4193 37.5956 33.3846 37.5741 33.3628C37.5526 33.3409 37.515 33.3268 37.4921 33.3062C37.4545 33.3062 37.4102 33.2843 37.3726 33.2843C37.3497 33.2843 37.3134 33.3062 37.2677 33.3062C37.2383 33.322 37.2108 33.341 37.1858 33.3628C37.1482 33.3833 37.1267 33.4193 37.1267 33.4412C37.1038 33.4772 37.1038 33.5196 37.1038 33.5556C37.1038 33.5775 37.1038 33.6122 37.1267 33.6559C37.1267 33.6777 37.1495 33.7125 37.1858 33.7343C37.2085 33.7587 37.2364 33.778 37.2677 33.7909C37.3054 33.8115 37.3497 33.8115 37.3726 33.8115C37.4102 33.8115 37.4545 33.8115 37.4921 33.7909C37.515 33.769 37.5513 33.7549 37.5741 33.7343C37.597 33.7137 37.6117 33.6777 37.6332 33.6559C37.6547 33.6135 37.6547 33.5775 37.6547 33.5556ZM37.8939 24.6499H37.7891L37.6695 24.8993L37.5499 24.6499H37.4451V25.0356H37.5042V24.7424L37.6238 24.9918H37.7058L37.8106 24.7424V25.0356H37.8926L37.8939 24.6499ZM38.2218 18.8991C38.2218 13.4556 33.586 9.02141 27.8833 9.02141C25.8523 9.02629 23.8671 9.59968 22.1725 10.6709C27.5554 14.9072 27.6374 22.9207 22.1725 27.135C23.8667 28.2072 25.8521 28.7806 27.8833 28.7845C33.586 28.7922 38.2218 24.3632 38.2218 18.8991Z" fill="#5DFF94" />
</svg>