<svg width="31" height="31" viewBox="0 0 31 31" fill="none" xmlns="http://www.w3.org/2000/svg">
<g clip-path="url(#clip0_36_717)">
<path d="M13.718 1.23889L1.21283 13.7286C0.985134 13.9662 0.806647 14.2463 0.687612 14.5529C0.437463 15.1611 0.437463 15.8432 0.687612 16.4513C0.806647 16.758 0.985134 17.0381 1.21283 17.2757L13.718 29.7654C13.9512 29.9983 14.2281 30.183 14.5327 30.3091C14.8374 30.4351 15.164 30.5 15.4938 30.5C16.1598 30.5 16.7985 30.2357 17.2695 29.7654C17.7405 29.295 18.005 28.657 18.005 27.9918C18.005 27.3266 17.7405 26.6887 17.2695 26.2183L9.01607 18.0001H27.999C28.6623 18.0001 29.2984 17.7369 29.7675 17.2684C30.2365 16.8 30.5 16.1646 30.5 15.5021C30.5 14.8396 30.2365 14.2043 29.7675 13.7358C29.2984 13.2674 28.6623 13.0042 27.999 13.0042H9.01607L17.2695 4.78596C17.5039 4.55375 17.69 4.27747 17.817 3.97308C17.9439 3.66868 18.0093 3.34218 18.0093 3.01243C18.0093 2.68267 17.9439 2.35617 17.817 2.05178C17.69 1.74738 17.5039 1.47111 17.2695 1.23889C17.037 1.00476 16.7604 0.818926 16.4556 0.692108C16.1508 0.56529 15.8239 0.500002 15.4938 0.500002C15.1636 0.500002 14.8367 0.56529 14.5319 0.692108C14.2271 0.818926 13.9505 1.00476 13.718 1.23889Z" fill="#5DFF94"/>
</g>
<defs>
<clipPath id="clip0_36_717">
<rect width="30" height="30" fill="white" transform="matrix(0 -1 1 0 0.5 30.5)"/>
</clipPath>
</defs>
</svg>
