<svg width="17" height="18" viewBox="0 0 17 18" fill="none" xmlns="http://www.w3.org/2000/svg">
  <path d="M15.8184 17.154L9.55636 10.892C9.05636 11.318 8.48136 11.6477 7.83136 11.881C7.18136 12.1144 6.52802 12.231 5.87136 12.231C4.27002 12.231 2.91469 11.6767 1.80536 10.568C0.696024 9.45871 0.141357 8.10371 0.141357 6.50304C0.141357 4.90238 0.695357 3.54671 1.80336 2.43604C2.91202 1.32471 4.26669 0.769043 5.86736 0.769043C7.46869 0.769043 8.82469 1.32371 9.93536 2.43304C11.046 3.54238 11.6014 4.89804 11.6014 6.50004C11.6014 7.19471 11.4784 7.86704 11.2324 8.51704C10.9857 9.16704 10.6624 9.72304 10.2624 10.185L16.5244 16.446L15.8184 17.154ZM5.87136 11.23C7.19802 11.23 8.31836 10.7734 9.23236 9.86004C10.1457 8.94671 10.6024 7.82638 10.6024 6.49904C10.6024 5.17238 10.1457 4.05238 9.23236 3.13904C8.31902 2.22571 7.19902 1.76904 5.87236 1.76904C4.54569 1.76904 3.42536 2.22571 2.51136 3.13904C1.59802 4.05238 1.14136 5.17238 1.14136 6.49904C1.14136 7.82571 1.59802 8.94571 2.51136 9.85904C3.42469 10.7724 4.54469 11.23 5.87136 11.23Z" fill="white" />
</svg>