<svg width="42" height="42" viewBox="0 0 42 42" fill="none" xmlns="http://www.w3.org/2000/svg">
  <g clip-path="url(#clip0_10_1548)">
    <path fill-rule="evenodd" clip-rule="evenodd" d="M21.5 2.75C11.1444 2.75 2.75 11.1444 2.75 21.5C2.75 31.8556 11.1444 40.25 21.5 40.25C31.8556 40.25 40.25 31.8556 40.25 21.5C40.25 11.1444 31.8556 2.75 21.5 2.75ZM14.9375 16.8125C14.9375 15.9507 15.1072 15.0973 15.437 14.3011C15.7668 13.5049 16.2502 12.7815 16.8596 12.1721C17.469 11.5627 18.1924 11.0793 18.9886 10.7495C19.7848 10.4197 20.6382 10.25 21.5 10.25C22.3618 10.25 23.2152 10.4197 24.0114 10.7495C24.8076 11.0793 25.531 11.5627 26.1404 12.1721C26.7498 12.7815 27.2332 13.5049 27.563 14.3011C27.8928 15.0973 28.0625 15.9507 28.0625 16.8125C28.0625 18.553 27.3711 20.2222 26.1404 21.4529C24.9097 22.6836 23.2405 23.375 21.5 23.375C19.7595 23.375 18.0903 22.6836 16.8596 21.4529C15.6289 20.2222 14.9375 18.553 14.9375 16.8125ZM33.2337 30.845C31.8302 32.6105 30.0459 34.0362 28.0141 35.0154C25.9823 35.9946 23.7555 36.5021 21.5 36.5C19.2445 36.5021 17.0177 35.9946 14.9859 35.0154C12.9541 34.0362 11.1698 32.6105 9.76625 30.845C12.8056 28.6644 16.9531 27.125 21.5 27.125C26.0469 27.125 30.1944 28.6644 33.2337 30.845Z" fill="#5DFF94" />
  </g>
  <defs>
    <clipPath id="clip0_10_1548">
      <rect width="42" height="42" fill="white" />
    </clipPath>
  </defs>
</svg>