<svg width="43" height="43" viewBox="0 0 43 43" fill="none" xmlns="http://www.w3.org/2000/svg">
  <path d="M13.5558 22.9104C13.7629 22.9104 18.5678 23.0746 21.4258 22.5161H21.4466C24.7396 21.8755 29.3166 20.0357 30.4971 14.0235C30.4971 14.0235 33.1274 6.5 20.0797 6.5H8.87516C7.86033 6.5 6.99048 7.09136 6.8248 7.87985L2.06134 31.7972C1.95778 32.2901 2.45484 32.75 3.07616 32.75H10.1799L11.9196 24.011C12.0439 23.3867 12.7274 22.9104 13.5558 22.9104Z" fill="#5DFF94" />
  <path d="M32.8995 15.25C31.1127 21.4129 25.4878 24.6678 16.5319 24.6678H13.2893L11.0172 35.4404C10.929 35.87 11.3702 36.25 11.9437 36.25H16.1349C16.8848 36.25 17.5466 35.8369 17.6569 35.2752C17.8334 34.6143 18.804 29.7897 19.0025 28.9636C19.1128 28.4018 19.7745 27.9888 20.5245 27.9888H21.4951C27.7157 27.9888 32.5907 26.0887 34.0245 20.6198C34.598 18.4058 34.2892 16.5883 32.8995 15.25Z" fill="#5DFF94" />
</svg>