<svg width="43" height="43" viewBox="0 0 43 43" fill="none" xmlns="http://www.w3.org/2000/svg">
  <path d="M34.0787 8.5022C33.7176 8.52848 33.3631 8.6132 33.0291 8.75308H33.0246C32.7039 8.8802 31.1796 9.52145 28.8621 10.4935L20.5573 13.9911C14.5982 16.4998 8.74033 18.9703 8.74033 18.9703L8.81008 18.9433C8.81008 18.9433 8.4062 19.0761 7.98433 19.3652C7.72369 19.531 7.49942 19.7481 7.32508 20.0031C7.11808 20.3068 6.95158 20.7715 7.01345 21.2518C7.1147 22.0641 7.6412 22.5512 8.0192 22.8201C8.4017 23.0923 8.7662 23.2194 8.7662 23.2194H8.7752L14.2686 25.0701C14.515 25.861 15.9426 30.5545 16.2857 31.6356C16.4882 32.2813 16.6851 32.6852 16.9314 32.9935C17.0507 33.151 17.1902 33.2826 17.3578 33.3883C17.445 33.439 17.5379 33.4791 17.6346 33.5076L17.5783 33.4941C17.5952 33.4986 17.6087 33.5121 17.6211 33.5166C17.6661 33.529 17.6965 33.5335 17.7538 33.5425C18.6235 33.8057 19.3221 33.2657 19.3221 33.2657L19.3615 33.2342L22.6048 30.2811L28.0408 34.4515L28.1646 34.5043C29.2974 35.0016 30.445 34.7248 31.0513 34.2366C31.6622 33.745 31.8996 33.1161 31.8996 33.1161L31.9389 33.0148L36.1397 11.4947C36.259 10.9637 36.2893 10.4665 36.1577 9.98383C36.0219 9.49538 35.7086 9.07528 35.2791 8.80595C34.9184 8.58671 34.5002 8.48088 34.0787 8.5022ZM33.9651 10.8085C33.9606 10.8793 33.9741 10.8715 33.9426 11.0076V11.02L29.7812 32.3162C29.7632 32.3466 29.7328 32.413 29.6496 32.4793C29.5618 32.5491 29.4921 32.593 29.1264 32.4478L22.4777 27.3505L18.4614 31.0112L19.3052 25.6225L30.1682 15.4975C30.6159 15.0812 30.4663 14.9935 30.4663 14.9935C30.4978 14.4827 29.7902 14.8438 29.7902 14.8438L16.0922 23.3297L16.0877 23.3072L9.5222 21.0966V21.0921L9.50533 21.0887C9.51684 21.0849 9.52811 21.0804 9.53908 21.0752L9.57508 21.0572L9.60995 21.0448C9.60995 21.0448 15.4723 18.5743 21.4314 16.0656C24.4149 14.809 27.4209 13.5433 29.7328 12.5668C31.1039 11.9897 32.4764 11.416 33.8503 10.8456C33.9426 10.8096 33.8987 10.8085 33.9651 10.8085Z" fill="#5DFF94" />
</svg>