<svg width="43" height="43" viewBox="0 0 43 43" fill="none" xmlns="http://www.w3.org/2000/svg">
  <path d="M35.0943 19.7357C35.0943 19.7357 35.6616 22.3929 35.7885 22.95H33.2951C33.5415 22.3143 34.4896 19.8429 34.4896 19.8429C34.4747 19.8643 34.7359 19.1929 34.8852 18.7786L35.0943 19.7357ZM43 8.92857V34.0714C43 35.9643 41.395 37.5 39.4167 37.5H3.58333C1.60503 37.5 0 35.9643 0 34.0714V8.92857C0 7.03571 1.60503 5.5 3.58333 5.5H39.4167C41.395 5.5 43 7.03571 43 8.92857ZM11.3845 26.8714L16.1026 15.7857H12.9299L9.99601 23.3571L9.675 21.8214L8.62986 16.7214C8.45816 16.0143 7.92812 15.8143 7.27118 15.7857H2.44115L2.38889 16.0071C3.5684 16.2929 4.62101 16.7071 5.53924 17.2286L8.21181 26.8714H11.3845ZM18.4318 26.8857L20.313 15.7857H17.312L15.4382 26.8857H18.4318ZM28.8757 23.2571C28.8906 21.9929 28.0844 21.0286 26.3599 20.2357C25.3073 19.7286 24.6653 19.3857 24.6653 18.8643C24.6802 18.3929 25.2102 17.9071 26.3898 17.9071C27.3677 17.8857 28.0844 18.1071 28.6219 18.3286L28.8906 18.45L29.3012 16.05C28.7115 15.8286 27.7708 15.5786 26.6137 15.5786C23.65 15.5786 21.5672 17.0929 21.5523 19.25C21.5299 20.8429 23.0453 21.7286 24.18 22.2643C25.3372 22.8071 25.7328 23.1643 25.7328 23.6429C25.7179 24.3857 24.7922 24.7286 23.9337 24.7286C22.7392 24.7286 22.0972 24.55 21.1193 24.1357L20.7236 23.9571L20.3056 26.45C21.0073 26.7571 22.3062 27.0286 23.65 27.0429C26.8003 27.05 28.8533 25.5571 28.8757 23.2571ZM39.4167 26.8857L36.9979 15.7857H34.6762C33.9595 15.7857 33.4146 15.9857 33.1085 16.7071L28.6517 26.8857H31.8021C31.8021 26.8857 32.3172 25.5143 32.4292 25.2214H36.2812C36.3708 25.6143 36.6396 26.8857 36.6396 26.8857H39.4167Z" fill="#5DFF94" />
</svg>