<svg width="38" height="43" viewBox="0 0 38 43" fill="none" xmlns="http://www.w3.org/2000/svg">
  <path d="M26.0464 22.9749C26.7208 23.1871 27.3669 23.4802 27.9707 23.8479L27.932 23.8255C28.5918 24.1185 29.1617 24.4615 29.6817 24.8643L29.663 24.8506C29.688 24.9267 29.7029 25.0127 29.7029 25.1038L29.7017 25.1437V25.1424C29.683 25.6774 29.5645 26.18 29.3637 26.6377L29.3737 26.6115C29.0856 27.1889 28.6055 27.6342 28.0181 27.8711L28.0006 27.8773C27.3929 28.1951 26.7207 28.3704 26.0352 28.3899H26.0277C24.7192 28.2217 23.4546 27.806 22.3013 27.1652L22.3549 27.1927C21.13 26.6378 20.0161 25.8649 19.0676 24.9117L19.0663 24.9105C18.0317 23.8332 17.0936 22.6673 16.2628 21.426L16.2042 21.3337C15.3798 20.2561 14.9014 18.9537 14.8324 17.5986L14.8311 17.5824V17.4278C14.8494 16.8489 14.9853 16.2798 15.2306 15.7552C15.4759 15.2306 15.8254 14.7613 16.2578 14.3761L16.2616 14.3724C16.5287 14.1062 16.8885 13.9538 17.2655 13.9471H17.2667C17.3927 13.9508 17.5137 13.9608 17.6309 13.9783L17.6147 13.9758C17.7232 13.992 17.8491 14.002 17.9788 14.0045H17.9826C18.1641 13.9868 18.3463 14.0317 18.4989 14.1317L18.4964 14.1304C18.6298 14.2776 18.7321 14.4559 18.7932 14.6517L18.7957 14.6617C18.8988 14.9194 19.1116 15.4864 19.4342 16.3627C19.6026 16.7543 19.7672 17.237 19.8994 17.7333L19.9168 17.8119C19.8269 18.2459 19.5926 18.6367 19.2521 18.9206L19.2484 18.9231C18.8036 19.3936 18.5812 19.693 18.5812 19.821C18.5859 19.926 18.621 20.0273 18.6822 20.1128L18.681 20.1116C19.1633 21.1087 19.8302 22.0054 20.6464 22.7542L20.6526 22.7604C21.5071 23.5302 22.465 24.1766 23.4986 24.681L23.5721 24.7134C23.6985 24.7954 23.8444 24.8423 23.9949 24.8493H23.9974C24.1911 24.8493 24.5395 24.5367 25.0425 23.9115C25.5455 23.2863 25.8797 22.9737 26.0452 22.9737L26.0464 22.9749ZM22.1217 33.2212H22.1492C23.7867 33.2236 25.4067 32.8842 26.9057 32.2248L26.8296 32.2547C29.7678 31.0151 32.0587 28.7241 33.2684 25.8645L33.2984 25.7859C33.9095 24.3979 34.2649 22.7791 34.2649 21.0781C34.2649 19.377 33.9095 17.7583 33.2684 16.2929L33.2984 16.3702C32.0587 13.432 29.7678 11.1411 26.9082 9.93138L26.8296 9.90145C25.4416 9.29036 23.8228 8.93494 22.1217 8.93494C20.4207 8.93494 18.8019 9.29036 17.3366 9.93138L17.4139 9.90145C14.4757 11.1411 12.1847 13.432 10.975 16.2917L10.9451 16.3702C10.3021 17.8614 9.97309 19.4691 9.9786 21.093C9.97457 23.6606 10.7961 26.1615 12.3219 28.2265L12.2982 28.1941L10.7705 32.6999L15.4497 31.2109C17.4044 32.5274 19.7089 33.2277 22.0656 33.2212H22.1242H22.1217ZM22.1217 6.50057H22.1629C24.1932 6.50057 26.1237 6.92709 27.8684 7.69655L27.7774 7.66039C31.3005 9.15318 34.0479 11.9006 35.5045 15.3289L35.5407 15.4237C36.274 17.0911 36.7005 19.0353 36.7005 21.0793C36.7005 23.1233 36.274 25.0676 35.5045 26.8273L35.5407 26.735C34.0479 30.2581 31.3005 33.0055 27.8722 34.4621L27.7774 34.4983C26.1225 35.2316 24.1919 35.6581 22.1616 35.6581H22.1192H22.1217H22.0556C19.4878 35.6581 17.0772 34.9834 14.992 33.8024L15.0631 33.8398L7.00049 36.4313L9.63065 28.6007C8.25772 26.3422 7.53527 23.7485 7.54298 21.1055C7.54298 19.0528 7.9695 17.0998 8.73896 15.3301L8.7028 15.4237C10.1956 11.9006 12.943 9.15318 16.3713 7.69655L16.4661 7.66039C18.2374 6.8888 20.1498 6.49384 22.0818 6.50057H22.1217Z" fill="#5DFF94" />
</svg>